# xmcd
# Track frame offsets:
# 150
# 22135
# 33307
# 54620
# 61165
# 81747
# 89950
# 102400
# 118670
# 126132
# 152322
# 169637
# 184570
# 200367
# 218527
# 244227
#
# Disc length: 3537 seconds
# Revision: 0
# Processed by: cddbd v1.5.2PL0 Copyright (c) Steve Scherf et al.
# Submitted via: VisiTrax 2.10.3.257 - For more info visit www.synapsa.com
#
DISCID=dd0dcf10
DTITLE=Consort Veneto, Ensemble Vocale Dodecantus - Dammonis: Laude
DYEAR=2001
DGENRE=Renaissance - Early - Italian
TTITLE0=O Stella matutina
TTITLE1=Humilmente t'envocho
TTITLE2=Maria, madre de Dio
TTITLE3=Fuzite christiani
TTITLE4=Non tardati, peccatori
TTITLE5=L'amor a me venendo
TTITLE6=Laudiam l'amor divino
TTITLE7=Gaude flore virginali
TTITLE8=Ave fuit prima salus
TTITLE9=Maria, del ciel regina
TTITLE10=O Croce alma, mirabilie
TTITLE11=Madre che festi
TTITLE12=O Jesu dolce
TTITLE13=Peccatori, perche seti
TTITLE14=Cum jubli d'amore
TTITLE15=Maria, misericordia
EXTD=
EXTT0=
EXTT1=
EXTT2=
EXTT3=
EXTT4=
EXTT5=
EXTT6=
EXTT7=
EXTT8=
EXTT9=
EXTT10=
EXTT11=
EXTT12=
EXTT13=
EXTT14=
EXTT15=
PLAYORDER=
